<?xml version="1.0" encoding="UTF-8"?>
<svg width="100px" height="29px" viewBox="0 0 100 29" version="1.1" xmlns="http://www.w3.org/2000/svg" xmlns:xlink="http://www.w3.org/1999/xlink">
    <!-- Generator: Sketch 63.1 (92452) - https://sketch.com -->
    <title>coa-logo</title>
    <desc>Created with Sketch.</desc>
    <defs>
        <linearGradient x1="50.0247239%" y1="99.9930883%" x2="50.0247239%" y2="0.0178908107%" id="linearGradient-1">
            <stop stop-color="#A93614" offset="0%"></stop>
            <stop stop-color="#EF4E25" offset="100%"></stop>
        </linearGradient>
        <linearGradient x1="50.3077044%" y1="100%" x2="50.3077044%" y2="-0.0147531418%" id="linearGradient-2">
            <stop stop-color="#681600" offset="0%"></stop>
            <stop stop-color="#9E3110" offset="100%"></stop>
        </linearGradient>
        <linearGradient x1="49.8113208%" y1="100%" x2="49.8113208%" y2="0%" id="linearGradient-3">
            <stop stop-color="#621300" offset="0%"></stop>
            <stop stop-color="#8A2913" offset="100%"></stop>
        </linearGradient>
        <linearGradient x1="50%" y1="103.794643%" x2="50%" y2="0.669642857%" id="linearGradient-4">
            <stop stop-color="#76270D" offset="0%"></stop>
            <stop stop-color="#A73A16" offset="100%"></stop>
        </linearGradient>
    </defs>
    <g id="Page-1" stroke="none" stroke-width="1" fill="none" fill-rule="evenodd">
        <g id="iPhone-8-Plus" transform="translate(-40.000000, -375.000000)" fill-rule="nonzero">
            <g id="coa-logo" transform="translate(40.000000, 374.992508)">
                <path d="M6.05555556,18.6904762 L9.71428571,18.6904762 L9.71428571,19.2063492 C9.82450947,20.57712 9.41038105,21.9386381 8.55555556,23.015873 C7.58306091,23.9206317 6.27687044,24.3780861 4.95238095,24.2777778 C3.12698413,24.2777778 1.84656085,23.7486772 1.11111111,22.6904762 C0.365079365,21.6587302 0,19.8412698 0,17.2301587 C0,14.6190476 0.373015873,12.8015873 1.11904762,11.7619048 C1.86507937,10.7222222 3.13492063,10.1746032 4.95238095,10.1746032 C6.27202465,10.0637299 7.57649254,10.5197164 8.53968254,11.4285714 C9.33333333,12.2619048 9.69047619,13.5555556 9.69047619,15.3253968 L9.69047619,15.5555556 L6.1031746,15.5555556 L6.1031746,15.1746032 C6.1421504,14.5934922 6.05273316,14.0109254 5.84126984,13.468254 C5.68176655,13.1399441 5.34060889,12.9396313 4.97619048,12.9603175 C4.53891083,12.9396106 4.14471783,13.2221156 4.02380952,13.6428571 C3.79492927,14.8132879 3.71228628,16.0076125 3.77777778,17.1984127 C3.71870419,18.3759941 3.80130653,19.5564083 4.02380952,20.7142857 C4.09446577,21.1720719 4.4891766,21.5094316 4.95238095,21.5079365 C5.32014544,21.5233842 5.66000665,21.3125444 5.80952381,20.9761905 C6.01961061,20.4357876 6.11161787,19.8566832 6.07936508,19.2777778 L6.07936508,18.9761905 C6.07936508,18.8333333 6.05555556,18.7619048 6.05555556,18.6904762 L6.05555556,18.6904762 Z M10.7777778,23.9285714 L10.7777778,6.1984127 L14.484127,6.1984127 L14.484127,12.0238095 C14.7625675,11.4976438 15.1833413,11.0603691 15.6984127,10.7619048 C16.2318035,10.4642711 16.8336657,10.3110698 17.4444444,10.3174603 C18.3264345,10.2451835 19.1827487,10.635783 19.7063492,11.3492063 C20.2585266,12.3431786 20.5068826,13.4773378 20.4206349,14.6111111 L20.4206349,23.9285714 L16.7222222,23.9285714 L16.7222222,15.6904762 C16.7719163,15.0194752 16.7020484,14.344981 16.515873,13.6984127 C16.3633119,13.4394956 16.0775943,13.2889562 15.7777778,13.3095238 C15.3641386,13.3085289 14.9857618,13.5423227 14.8015873,13.9126984 C14.5432542,14.4373021 14.4230604,15.0191495 14.452381,15.6031746 L14.452381,23.9285714 L10.7777778,23.9285714 Z M27.4920635,19.2539683 L30.984127,19.2539683 L30.984127,19.5873016 C31.0790806,20.8776711 30.6367977,22.1499526 29.7619048,23.1031746 C28.7521377,23.9586251 27.4467964,24.3832885 26.1269841,24.2857143 C25.3744914,24.2948224 24.6258656,24.1767595 23.9126984,23.9365079 C23.3308883,23.7624638 22.8016847,23.4460327 22.3730159,23.015873 C21.922188,22.4803674 21.6161525,21.8382391 21.484127,21.1507937 C21.2735116,19.9218195 21.1857773,18.6749293 21.2222222,17.4285714 C21.1740194,16.1000369 21.2644554,14.7700968 21.4920635,13.4603175 C21.6364865,12.777949 21.9534574,12.1440071 22.4126984,11.6190476 C22.8528754,11.1564324 23.3970262,10.8054551 24,10.5952381 C24.7286852,10.3513077 25.4935819,10.2332184 26.2619048,10.2460317 C27.0349191,10.2311313 27.8041547,10.3575441 28.531746,10.6190476 C29.1484425,10.8451303 29.695537,11.2280964 30.1190476,11.7301587 C30.4636291,12.1672282 30.7099628,12.6734303 30.8412698,13.2142857 C31.0170096,14.1880523 31.0888409,15.1777289 31.0555556,16.1666667 L31.0555556,17.7539683 L24.9920635,17.7539683 C24.9876743,17.804137 24.9876743,17.8545932 24.9920635,17.9047619 C24.9920635,18.468254 24.9444444,18.8571429 24.9444444,19.0793651 C24.8977752,19.7445203 25.0008318,20.4116762 25.2460317,21.031746 C25.4487615,21.4009069 25.8502435,21.6156531 26.2698413,21.5793651 C26.6366822,21.6016263 26.9915934,21.4448738 27.2222222,21.1587302 C27.4647625,20.7816045 27.578902,20.3361818 27.547619,19.8888889 L27.547619,19.3571429 C27.5269096,19.3239768 27.5083529,19.2895143 27.4920635,19.2539683 L27.4920635,19.2539683 Z M25.1111111,15.4603175 L27.6111111,15.4603175 L27.6111111,15.3968254 C27.6428571,15.0582011 27.6587302,14.8201058 27.6587302,14.6825397 C27.6920858,14.1806912 27.5819799,13.6797095 27.3412698,13.2380952 C27.119684,12.9182906 26.7450701,12.740047 26.3571429,12.7698413 C25.9744244,12.7361513 25.6026465,12.9084386 25.3809524,13.2222222 C25.1480044,13.6888937 25.0464914,14.2101765 25.0873016,14.7301587 L25.0873016,15.1746032 C25.0744939,15.2693725 25.066547,15.3647354 25.0634921,15.4603175 L25.1111111,15.4603175 Z M38.5555556,23.9285714 L38.3333333,22.7063492 C37.8971994,23.1712383 37.374092,23.546042 36.7936508,23.8095238 C36.2234822,24.0599276 35.606842,24.187042 34.984127,24.1825397 C34.0466244,24.2277904 33.1371525,23.8558658 32.5,23.1666667 C31.8628723,22.4008814 31.5370706,21.4234763 31.5873016,20.4285714 C31.5567425,19.5336817 31.8372005,18.6558483 32.3809524,17.9444444 C33.0715819,17.1704939 33.9485288,16.5858626 34.9285714,16.2460317 L36.0634921,15.8730159 C37.452381,15.3650794 38.1507937,14.7936508 38.1507937,14.1587302 C38.1729628,13.8316499 38.0645043,13.5091288 37.8492063,13.2619048 C37.6168107,13.0290218 37.2968883,12.9050879 36.968254,12.9206349 C36.5876772,12.8918926 36.2153156,13.0414237 35.9603175,13.3253968 C35.7173203,13.6993702 35.6030658,14.1424544 35.6349206,14.5873016 L35.6349206,14.6825397 L31.9047619,14.6825397 C31.8046727,13.4329691 32.2639577,12.2033643 33.1587302,11.3253968 C34.2548735,10.5120919 35.607134,10.1204998 36.968254,10.2222222 C37.6594206,10.2139144 38.3492174,10.2858237 39.0238095,10.4365079 C39.5616851,10.5517452 40.0749013,10.7613309 40.5396825,11.0555556 C41.025478,11.3632462 41.4093271,11.8078484 41.6428571,12.3333333 C41.9042972,13.2184803 42.01168,14.1419727 41.9603175,15.0634921 L41.9603175,20.1984127 C41.9478357,20.9934022 41.9822872,21.7884354 42.0634921,22.5793651 C42.1143409,23.042787 42.2375297,23.495372 42.4285714,23.9206349 L38.5555556,23.9285714 Z M38.0793651,17.515873 C37.3109738,17.6837363 36.5914122,18.0258675 35.9761905,18.515873 C35.5476617,18.8919966 35.3066697,19.4378581 35.3174603,20.0079365 C35.2992641,20.3748008 35.4148944,20.735793 35.6428571,21.0238095 C35.8636907,21.2776154 36.1876286,21.4176967 36.5238095,21.4047619 C36.9912461,21.4447481 37.4446809,21.2331452 37.7142857,20.8492063 C38.0047516,20.2784629 38.1311339,19.6383091 38.0793651,19 L38.0793651,17.515873 Z M43.3174603,28.4047619 L43.3174603,10.6031746 L46.7301587,10.6031746 L46.7301587,12.1111111 C47.0565293,11.5508661 47.5210439,11.0836191 48.0793651,10.7539683 C48.5873194,10.4584869 49.1664068,10.3075399 49.7539683,10.3174603 C50.2414282,10.3129994 50.7247243,10.4074986 51.1746032,10.5952381 C51.5913634,10.7680326 51.9592893,11.0405703 52.2460317,11.3888889 C52.6085981,11.8806956 52.848084,12.4521959 52.9444444,13.0555556 C53.1139814,14.3524862 53.1803272,15.660826 53.1428571,16.968254 C53.1428571,20 52.8968254,21.984127 52.3888889,22.9285714 C51.8346887,23.8862598 50.7662274,24.425163 49.6666667,24.3015873 C49.1464532,24.3125026 48.6331829,24.180754 48.1825397,23.9206349 C47.7145259,23.6198611 47.3166469,23.2219821 47.015873,22.7539683 L47.015873,28.4047619 L43.3174603,28.4047619 Z M48.1507937,21.1428571 C48.6275715,21.1462456 49.0415044,20.8150993 49.1428571,20.3492063 C49.3857942,19.0868197 49.4763888,17.7998442 49.4126984,16.515873 C49.4586666,15.6817741 49.3702367,14.8457092 49.1507937,14.0396825 C49.0324101,13.6365739 48.6581124,13.3631738 48.2380952,13.3730159 C47.7555306,13.3674221 47.3335584,13.6970879 47.2222222,14.1666667 C46.9626512,15.5045574 46.869352,16.8693906 46.9444444,18.2301587 C46.8975799,19.0177227 46.9889045,19.8074123 47.2142857,20.5634921 C47.3726574,20.9463496 47.7620685,21.1812835 48.1746032,21.1428571 L48.1507937,21.1428571 Z M78.7142857,23.9285714 L78.4920635,22.7063492 C78.0579096,23.1720301 77.5377732,23.5493312 76.9603175,23.8174603 C76.387631,24.0687315 75.7682195,24.1958596 75.1428571,24.1904762 C74.2135328,24.2286186 73.3142299,23.8572935 72.6825397,23.1746032 C72.0425586,22.4099831 71.713883,21.4324566 71.7619048,20.4365079 C71.7313457,19.5416182 72.0118037,18.6637848 72.5555556,17.952381 C73.237557,17.1868014 74.0994675,16.6031025 75.0634921,16.2539683 L76.2142857,15.8333333 C77.6031746,15.3253968 78.2936508,14.7539683 78.2936508,14.1190476 C78.3179997,13.7930619 78.2124395,13.4706754 78,13.2222222 C77.7634156,13.0103207 77.4519656,12.9017418 77.1349206,12.9206349 C76.7539622,12.8893945 76.3805302,13.0393554 76.1269841,13.3253968 C75.8778856,13.6969213 75.760522,14.1412265 75.7936508,14.5873016 L75.7936508,14.6825397 L72.0634921,14.6825397 C71.9620797,13.4312519 72.4248653,12.2000674 73.3253968,11.3253968 C74.420574,10.5101443 75.7735766,10.1183373 77.1349206,10.2222222 C77.8260676,10.2143411 78.5158153,10.2862453 79.1904762,10.4365079 C79.7258956,10.5516705 80.236518,10.7612944 80.6984127,11.0555556 C81.1842081,11.3632462 81.5680573,11.8078484 81.8015873,12.3333333 C82.0671604,13.2176312 82.1746278,14.1418508 82.1190476,15.0634921 L82.1190476,20.1984127 C82.1043765,20.9936338 82.1414921,21.7889664 82.2301587,22.5793651 C82.2787424,23.0423052 82.3992383,23.4948344 82.5873016,23.9206349 L78.7142857,23.9285714 Z M78.2380952,17.515873 C77.4691464,17.6821027 76.7492273,18.0244039 76.1349206,18.515873 C75.7016344,18.8891641 75.4572451,19.4361306 75.468254,20.0079365 C75.4485259,20.376316 75.5674436,20.7387317 75.8015873,21.0238095 C76.0210001,21.2795511 76.3459215,21.4200577 76.6825397,21.4047619 C77.1475468,21.4434871 77.5980309,21.2318503 77.8650794,20.8492063 C78.1586801,20.2793867 78.287841,19.6390784 78.2380952,19 L78.2380952,17.515873 Z M83.4047619,9.27777778 L83.4047619,6.05555556 L87.1031746,6.05555556 L87.1031746,9.27777778 L83.4047619,9.27777778 Z M83.4047619,23.9285714 L83.4047619,10.6031746 L87.1031746,10.6031746 L87.1031746,23.9285714 L83.4047619,23.9285714 Z M88.3730159,23.9285714 L88.3730159,10.6031746 L91.7936508,10.6031746 L91.7936508,12.468254 C92.1325381,11.8766751 92.5890094,11.3607816 93.1349206,10.952381 C93.621928,10.6071622 94.1913112,10.3963809 94.7857143,10.3412698 L94.7857143,14.5634921 C94.5793651,14.515873 94.3809524,14.484127 94.1984127,14.4603175 C94.0266201,14.4496622 93.8543323,14.4496622 93.6825397,14.4603175 C93.1783485,14.4078161 92.6903696,14.6564677 92.4365079,15.0952381 C92.1361567,15.8813926 92.0141716,16.7244452 92.0793651,17.5634921 L92.0793651,23.9603175 L88.3730159,23.9285714 Z" id="Shape" fill="#056BA8"></path>
                <path d="M66.7380952,17.6984127 C66.7380952,18.4920635 66.6587302,19.2063492 66.5634921,19.952381 C66.4795626,20.6900345 66.2980833,21.4132827 66.0238095,22.1031746 C65.4488495,23.4970147 64.2477455,24.5362052 62.7857143,24.9047619 C62.0717703,25.0765753 61.3357399,25.1381342 60.6031746,25.0873016 C59.8514991,25.058381 59.1081334,24.9193342 58.3968254,24.6746032 C57.0222853,24.1996566 55.916198,23.1599923 55.3571429,21.8174603 C55.1090386,21.1283046 54.9464476,20.4113052 54.8730159,19.6825397 C54.7936508,18.9444444 54.7619048,18.1984127 54.7380952,17.4603175 C54.6984127,15.9365079 54.6984127,14.4126984 54.7380952,12.8888889 C54.7380952,12.1428571 54.8015873,11.3888889 54.8888889,10.6428571 C54.9623207,9.91409165 55.1249116,9.19709225 55.3730159,8.50793651 C55.6413371,7.82705864 56.0465187,7.20848147 56.5634921,6.69047619 C57.0904403,6.17900147 57.7135639,5.77707327 58.3968254,5.50793651 C59.0983902,5.22870176 59.8357948,5.04969411 60.5873016,4.97619048 C61.3276818,4.88738527 62.077365,4.91415967 62.8095238,5.05555556 C64.2757669,5.34811445 65.4960285,6.35952932 66.0555556,7.74603175 C66.3210546,8.43498535 66.4970939,9.15514624 66.5793651,9.88888889 C66.6666667,10.6349206 66.7142857,11.3888889 66.7460317,12.1428571 L66.7460317,13.1349206 C66.7460317,13.2619048 66.7380952,13 66.7380952,13.1349206 L66.7380952,17.6984127 Z M62.1031746,11.8412698 C62.1031746,11.3650794 62.1031746,11.1031746 62.0396825,10.7301587 C62.0128224,10.3674869 61.962452,10.0069408 61.8888889,9.65079365 C61.821384,9.33738038 61.6475307,9.05697189 61.3968254,8.85714286 C61.1118102,8.66749912 60.7684371,8.58587765 60.4285714,8.62698413 C60.0962017,8.63446548 59.7733358,8.7393279 59.5,8.92857143 C59.2334113,9.12564428 59.0383651,9.40428177 58.9444444,9.72222222 C58.854792,10.0708342 58.7963602,10.4267371 58.7698413,10.7857143 C58.7698413,11.1587302 58.7142857,11.5238095 58.6984127,11.8968254 L58.6984127,16.9920635 C58.6984127,17.7460317 58.6984127,18.5 58.7857143,19.2539683 C58.8122332,19.6129455 58.870665,19.9688483 58.9603175,20.3174603 C59.0467893,20.6347382 59.2367269,20.9140582 59.5,21.1111111 C59.7881528,21.3039186 60.1296973,21.4011061 60.4761905,21.3888889 C60.8100498,21.4088394 61.1406405,21.3135845 61.4126984,21.1190476 C61.6733938,20.8930398 61.8496731,20.5852506 61.9126984,20.2460317 C61.9932954,19.8935422 62.0463654,19.5353199 62.0714286,19.1746032 C62.1428571,18.3412698 62.1031746,17.547619 62.1031746,16.7142857 L62.1031746,11.8412698 Z" id="Shape" fill="url(#linearGradient-1)"></path>
                <path d="M70.0238095,21.7063492 L70.1269841,21.4206349 L70.1269841,21.3333333 C70.2142857,21.0079365 70.2777778,20.6746032 70.3333333,20.3412698 C70.4351429,19.6711409 70.4934659,18.9951243 70.5079365,18.3174603 C70.5079365,17.6031746 70.5555556,16.8809524 70.5555556,16.1587302 C70.5555556,14.6746032 70.5555556,13.1904762 70.4365079,11.7142857 C70.3934878,11.0004499 70.2899414,10.291555 70.1269841,9.5952381 C69.9881907,8.95658406 69.7179011,8.35383814 69.3333333,7.82539683 C69.1535846,7.57510419 68.9458952,7.34611328 68.7142857,7.14285714 C68.6030494,7.05374923 68.4864262,6.97158284 68.3650794,6.8968254 C68.3025841,6.85136604 68.2361874,6.81152803 68.1666667,6.77777778 L68.0714286,6.72222222 C68.0397868,6.71550617 68.0099926,6.70196337 67.984127,6.68253968 C67.9079069,6.65297301 67.833678,6.61850961 67.7619048,6.57936508 L67.484127,6.45238095 L66.9444444,6.1984127 C66.940424,6.16945103 66.940424,6.14007278 66.9444444,6.11111111 L66.9444444,0.920634921 C66.9519931,0.458293005 66.6097047,0.0646612872 66.1507937,0.00793650794 C65.9375644,-0.00553883205 65.7235218,0.0131898972 65.515873,0.0634920635 L63.3571429,0.373015873 L62.7063492,0.468253968 C62.25531,0.54032575 61.8852747,0.864106606 61.7539683,1.3015873 C61.6863133,1.53595743 61.6621053,1.78072726 61.6825397,2.02380952 L61.6825397,4.50793651 L62.4603175,4.50793651 L62.4603175,1.88095238 C62.4603175,1.70634921 62.4603175,1.37301587 62.6904762,1.34126984 L64.3253968,1.1031746 L65.3968254,0.952380952 L65.7380952,0.904761905 C65.7983725,0.892990527 65.8603577,0.892990527 65.9206349,0.904761905 C66.0873016,0.944444444 66.0396825,1.1984127 66.0396825,1.32539683 L66.0396825,5.83333333 L65.3095238,5.48412698 L64.9444444,5.31746032 C64.8904756,5.28779448 64.8348259,5.26129466 64.7777778,5.23809524 C65.1116548,5.39786629 65.4215367,5.60356376 65.6984127,5.84920635 C65.7630713,5.90328678 65.824053,5.96161715 65.8809524,6.02380952 L65.9761905,6.11904762 L66.0396825,6.1984127 C66.0568628,6.22782254 66.0782534,6.25456071 66.1031746,6.27777778 L66.1904762,6.38095238 L66.3571429,6.5952381 C66.7751211,7.19531007 67.0617876,7.87681916 67.1984127,8.5952381 C67.4643107,10.0454807 67.5918676,11.5176996 67.5793651,12.9920635 L67.5793651,17.5555556 C67.5793651,18.3174603 67.5238095,19.047619 67.4444444,19.7460317 C67.3812954,20.4609996 67.2375254,21.1665373 67.015873,21.8492063 C66.7790346,22.5395558 66.4036313,23.1742304 65.9126984,23.7142857 C65.1947235,24.4744603 64.2355816,24.9624448 63.1984127,25.0952381 C63.9920635,24.984127 66.3730159,24.6428571 66.7380952,24.5714286 C66.9230789,24.5404341 67.1059679,24.498025 67.2857143,24.4444444 L67.5396825,24.3492063 L67.6031746,24.3492063 C67.5986685,24.3282822 67.5986685,24.3066385 67.6031746,24.2857143 C67.5994744,24.2381671 67.5994744,24.1904043 67.6031746,24.1428571 C67.4787039,23.5309736 67.5683708,22.8948989 67.8571429,22.3412698 C68.0668498,21.9615858 68.4631573,21.7225911 68.8968254,21.7142857 L70.0238095,21.7063492 Z" id="Path" fill="url(#linearGradient-2)"></path>
                <path d="M68.0714286,23.1031746 C68.0714286,22.1190476 68.6507937,21.3253968 69.3650794,21.3253968 L68.484127,21.3253968 C67.7777778,21.3253968 67.2619048,22.1190476 67.2619048,23.1031746 C67.2619048,24.0873016 67.7777778,24.8809524 68.484127,24.8809524 L69.2777778,24.8809524 C68.4902101,24.6698333 67.9766596,23.9130221 68.0714286,23.1031746 Z" id="Path" fill="url(#linearGradient-3)"></path>
                <path d="M70.5634921,23.1031746 C70.5634921,24.0793651 70,24.8809524 69.3095238,24.8809524 C68.6190476,24.8809524 68.0555556,24.0873016 68.0555556,23.1031746 C68.0555556,22.1190476 68.6111111,21.3253968 69.3095238,21.3253968 C70.0079365,21.3253968 70.5634921,22.1190476 70.5634921,23.1031746 Z" id="Path" fill="url(#linearGradient-4)"></path>
                <path d="M98.8888889,7.47619048 C99.2089727,7.66069919 99.4661482,7.937232 99.6269841,8.26984127 C99.7988335,8.59515635 99.8887336,8.95748096 99.8888889,9.32539683 C99.8924697,9.66881364 99.8164053,10.0083871 99.6666667,10.3174603 C99.5067439,10.6481395 99.2527372,10.9242338 98.9365079,11.1111111 C98.6423838,11.2906567 98.3049053,11.3866871 97.9603175,11.3888889 C97.6133673,11.3857579 97.2735743,11.2898486 96.9761905,11.1111111 C96.6620027,10.9217226 96.4086269,10.6463141 96.2460317,10.3174603 C96.0751824,9.99746979 95.9852638,9.64052031 95.9841086,9.27777778 C95.983048,8.90872888 96.0759096,8.54547653 96.2539683,8.22222222 C96.4148042,7.88961295 96.6719797,7.61308014 96.9920635,7.42857143 C97.277322,7.27586388 97.5971498,7.1993239 97.9206349,7.20634921 C98.2617253,7.20797904 98.5961202,7.30117107 98.8888889,7.47619048 Z M97.9206349,7.55555246 C97.641133,7.55845831 97.3673537,7.63511653 97.1269841,7.77777778 C96.8639241,7.93266107 96.6494815,8.15810069 96.5079365,8.42857143 C96.3638877,8.69999857 96.2876448,9.002247 96.2857143,9.30952381 C96.2889451,9.61158445 96.3651867,9.90838229 96.5079365,10.1746032 C96.7055551,10.5727342 97.0610499,10.8697677 97.4879686,10.9934685 C97.9148872,11.1171693 98.3741133,11.0561837 98.7539683,10.8253968 C99.0128052,10.6702168 99.2220399,10.4444636 99.3571429,10.1746032 C99.5036271,9.90985273 99.5801151,9.61209587 99.5793929,9.30952381 C99.5810672,9.0017952 99.504604,8.69867326 99.3571429,8.42857143 C99.0868872,7.89224398 98.5370776,7.55437215 97.9365079,7.55555246 L97.9206349,7.55555246 Z M97.0555556,10.468254 L97.0555556,8.20634921 L97.7857143,8.20634921 C97.9678247,8.19908701 98.1499441,8.22051283 98.3253968,8.26984127 C98.4373036,8.30875417 98.5306851,8.38798697 98.5873016,8.49206349 C98.6545102,8.58725239 98.6905563,8.70093598 98.6904762,8.81746032 C98.6916361,8.97871697 98.6321477,9.13451997 98.5238095,9.25396825 C98.4101485,9.37617774 98.2538806,9.45004984 98.0873016,9.46031746 C98.1535591,9.4866582 98.2131804,9.52730908 98.2619048,9.57936508 C98.3828801,9.71608033 98.4892751,9.86503333 98.5793651,10.0238095 L98.8333333,10.468254 L98.4206349,10.468254 L98.2301587,10.1111111 C98.1398364,9.91856243 98.0192622,9.74172025 97.8730159,9.58730159 C97.7930091,9.52824425 97.6943685,9.50006123 97.5952381,9.50793651 L97.3968254,9.50793651 L97.3968254,10.468254 L97.0555556,10.468254 Z M97.3968254,9.1984127 L97.8095238,9.1984127 C97.9513499,9.21363307 98.0941265,9.18003856 98.2142857,9.1031746 C98.2892806,9.04076233 98.3304578,8.94664305 98.3253968,8.84920635 C98.3257901,8.78523871 98.3093689,8.72229054 98.2777778,8.66666667 C98.2382936,8.61687353 98.1862388,8.5785173 98.1269841,8.55555556 C98.016979,8.5198536 97.9009764,8.50636492 97.7857143,8.51587302 L97.3968254,8.51587302 L97.3968254,9.1984127 Z" id="Shape" fill="#056BA8"></path>
            </g>
        </g>
    </g>
</svg>