<?xml version="1.0" encoding="utf-8"?>
<!-- Generator: Adobe Illustrator 22.0.1, SVG Export Plug-In . SVG Version: 6.00 Build 0)  -->
<svg version="1.1" id="Layer_1" xmlns="http://www.w3.org/2000/svg" xmlns:xlink="http://www.w3.org/1999/xlink" x="0px" y="0px"
	 viewBox="0 0 18.5 18.5" style="enable-background:new 0 0 18.5 18.5;" xml:space="preserve">
<style type="text/css">
	.st0{opacity:0.5;}
	.st1{fill:#FEFFFE;}
</style>
<circle class="st0" cx="9.2" cy="9.2" r="8.9"/>
<g transform="translate(0, 0)">
	<g transform="translate(0, 0)">
		<path vector-effect="non-scaling-stroke" class="st1" d="M10.7,9.2l3.3,3.3c0.4,0.4,0.4,1,0,1.4c-0.4,0.4-1,0.4-1.4,0l-3.3-3.3
			L6,13.9c-0.4,0.4-1,0.4-1.4,0c-0.4-0.4-0.4-1,0-1.4l3.3-3.3L4.5,6c-0.4-0.4-0.4-1,0-1.4c0.4-0.4,1-0.4,1.4,0l3.3,3.3l3.3-3.3
			c0.4-0.4,1-0.4,1.4,0c0.4,0.4,0.4,1,0,1.4L10.7,9.2z"/>
	</g>
</g>
</svg>
